<svg version="1.1" xmlns="http://www.w3.org/2000/svg" xmlns:xlink="http://www.w3.org/1999/xlink" width="43.20821" height="38.7" viewBox="0,0,43.20821,38.7"><g transform="translate(-218.39589,-160.65)"><g data-paper-data="{&quot;isPaintingLayer&quot;:true}" fill-rule="nonzero" stroke-linecap="butt" stroke-linejoin="miter" stroke-miterlimit="10" stroke-dasharray="" stroke-dashoffset="0" style="mix-blend-mode: normal"><path d="M226.07743,173.19696h22.91525c0,0 11.61142,3.74483 11.61142,5.54014c0,1.94643 -11.61142,5.72178 -11.61142,5.72178h-22.91525z" fill="#00d0d0" stroke="#000000" stroke-width="2"/><path d="M224.92081,162.78625h9.60635v33.94867h-9.60635c0,0 -5.4094,-11.64598 -5.4094,-17.27895c0,-5.68282 5.4094,-16.66971 5.4094,-16.66971z" fill="#00d0d0" stroke="#000000" stroke-width="2"/><g><path d="M230.59273,170.71382h6.5054v18.09352h-6.5054c0,0 -3.66324,-6.20693 -3.66324,-9.20911c0,-3.02875 3.66324,-8.88441 3.66324,-8.88441z" fill="#00ffff" stroke="#000000" stroke-width="2"/><path d="M237.12343,177.22982h11.90309v4.06837h-11.90309z" fill="#00ffff" stroke="#000000" stroke-width="2"/><path d="M236.4885,180.94087c-0.46956,0 -0.85022,-0.29958 -0.85022,-0.66914c0,-0.28606 0.22808,-0.5302 0.54893,-0.62591c-0.03992,-0.2042 -0.05624,-0.41593 -0.05139,-0.61805c-0.29354,-0.10546 -0.49755,-0.3385 -0.49755,-0.60904c0,-0.36956 0.38066,-0.66914 0.85022,-0.66914c0.08535,0 0.16775,0.0099 0.24547,0.02831c0.14675,-0.09488 0.3346,-0.15184 0.53935,-0.15184c0.46956,0 0.85022,0.29958 0.85022,0.66914c0,0.04877 -0.00663,0.09632 -0.01922,0.14212c0.55264,0.97703 0.47184,2.38002 -0.831,2.38002c-0.08625,0 -0.16707,-0.01048 -0.24262,-0.03017c-0.14717,0.096 -0.33612,0.1537 -0.5422,0.1537z" fill="#00ffff" stroke="none" stroke-width="0.5"/><path d="M231.09758,176.56706c2.1913,0 3.9677,1.39806 3.9677,3.12265c0,1.72459 -1.7764,3.12265 -3.9677,3.12265c-2.1913,0 -2.1913,-6.2453 0,-6.2453z" fill="#3ebeff" stroke="#000000" stroke-width="2"/></g><g stroke="#000000" stroke-width="2"><path d="M237.16373,162.7889h10.25921v1.86531h-10.25921z" fill="#00d0d0"/><path d="M219.58244,162.02306c0,0 0.6067,-0.37306 1.86531,-0.37306c4.19108,0 13.54246,0 15.94841,0c1.10322,0 1.58551,0.46633 1.58551,0.46633c0,0 0.65286,0.31877 0.65286,0.83939c0,0.31918 0,0.86613 0,1.39898c0,0.76048 -0.93266,1.30572 -0.93266,1.30572c0,0 -0.2025,0.18653 -1.30572,0.18653c-2.38827,0 -11.62021,0 -15.85515,0c-1.31256,0 -1.67878,-0.65286 -1.67878,-0.65286c0,0 -0.46633,0.09106 -0.46633,-0.55959c0,-0.61226 0,-1.30321 0,-1.67878c0,-0.52062 0.18653,-0.93266 0.18653,-0.93266z" fill="#00ffff"/></g><g stroke="#000000" stroke-width="2"><path d="M236.6974,195.35413h10.25921v1.86531h-10.25921z" fill="#00d0d0"/><path d="M219.76898,194.52611c0,0 0.6067,-0.37306 1.86531,-0.37306c4.19108,0 13.54246,0 15.94841,0c1.10322,0 1.58551,0.46633 1.58551,0.46633c0,0 0.65286,0.31877 0.65286,0.83939c0,0.31918 0,0.86613 0,1.39898c0,0.76048 -0.93266,1.30572 -0.93266,1.30572c0,0 -0.2025,0.18653 -1.30572,0.18653c-2.38827,0 -11.62021,0 -15.85515,0c-1.31256,0 -1.67878,-0.65286 -1.67878,-0.65286c0,0 -0.46633,0.09106 -0.46633,-0.55959c0,-0.61226 0,-1.30321 0,-1.67878c0,-0.52062 0.18653,-0.93266 0.18653,-0.93266z" fill="#00ffff"/></g></g></g></svg>