<svg version="1.1" xmlns="http://www.w3.org/2000/svg" xmlns:xlink="http://www.w3.org/1999/xlink" width="1276.56403" height="1150.85194" viewBox="0,0,1276.56403,1150.85194"><defs><radialGradient cx="240" cy="180" r="52.48333" gradientUnits="userSpaceOnUse" id="color-1"><stop offset="0" stop-color="#ffffff"/><stop offset="1" stop-color="#ffffff" stop-opacity="0"/></radialGradient></defs><g transform="translate(321.54467,362.93187)"><g data-paper-data="{&quot;isPaintingLayer&quot;:true}" fill-rule="nonzero" stroke="none" stroke-width="0" stroke-linecap="butt" stroke-linejoin="miter" stroke-miterlimit="10" stroke-dasharray="" stroke-dashoffset="0" style="mix-blend-mode: normal"><path d="M216.1,180c0,-13.19961 10.70039,-23.9 23.9,-23.9c13.19961,0 23.9,10.70039 23.9,23.9c0,13.19961 -10.70039,23.9 -23.9,23.9c-13.19961,0 -23.9,-10.70039 -23.9,-23.9z" fill="#ffffff"/><path d="M187.51667,180c0,-28.98574 23.49759,-52.48333 52.48333,-52.48333c28.98574,0 52.48333,23.49759 52.48333,52.48333c0,28.98574 -23.49759,52.48333 -52.48333,52.48333c-28.98574,0 -52.48333,-23.49759 -52.48333,-52.48333z" fill="url(#color-1)"/><path d="M240.88031,188.61625l-1.47222,-7.50751l715.61128,-58.55855v66.06606z" fill="#ffffff"/><path d="M233.75096,181.25322l6.9824,4.69288l-510.9068,601.97397l-51.37123,-51.37123z" fill="#ffffff"/><path d="M242.40225,177.4794l-4.2676,6.34962l-547.42073,-464.60643l46.71576,-46.71577z" fill="#ffffff"/><path d="M235.3186,186.50123l4.12536,-4.62939l529.17648,338.7358l-45.15884,34.05958z" fill="#ffffff"/><path d="M241.01538,188.75646l-6.34962,-4.26759l464.60643,-547.42074l46.71576,46.71576z" fill="#ffffff"/></g></g></svg>