<svg version="1.1" xmlns="http://www.w3.org/2000/svg" xmlns:xlink="http://www.w3.org/1999/xlink" width="91.98895" height="64.0916" viewBox="0,0,91.98895,64.0916"><g transform="translate(-195.83396,-146.54941)"><g data-paper-data="{&quot;isPaintingLayer&quot;:true}" fill-rule="nonzero" stroke-linecap="butt" stroke-linejoin="miter" stroke-miterlimit="10" stroke-dasharray="" stroke-dashoffset="0" style="mix-blend-mode: normal"><path d="M235.1809,151.37362c12.89012,-2.34009 22.81603,1.09361 33.80275,9.75221c3.28392,2.58805 9.81893,0.95353 12.33978,4.18709c0.93917,1.6584 3.14581,4.19162 3.81751,5.9752c0.2394,0.63567 1.01224,3.54919 -0.01643,4.4275c-0.71808,0.61312 1.66055,0.87576 1.70228,1.34808c0.09339,1.05699 -1.0593,0.44818 -0.95617,1.50619c0.07123,0.73077 -0.22784,2.46161 -0.28484,3.19229c-0.71091,9.11274 -11.23086,13.8402 -18.62876,17.95711c-5.50826,3.06534 -11.45789,4.88622 -17.45785,6.65386c-13.58652,4.0027 -30.09534,5.92716 -41.79419,-3.85247c-3.28396,-2.81702 -4.65247,-3.35401 -6.52335,-7.18616c-6.65314,-13.62772 -6.18032,-37.4702 4.98653,-45.99098c6.56574,-5.00994 20.73084,2.10595 28.67942,1.69673z" fill="#dcad84" stroke="#000000" stroke-width="2"/><path d="M214.47568,172.60601c-0.72115,-0.20604 -0.5151,-0.92718 -0.5151,-0.92718l0.3989,-1.39615c0,0 0.20604,-0.72114 0.92719,-0.5151c0.72115,0.20604 0.5151,0.92718 0.5151,0.92718l-0.3989,1.39615c0,0 -0.20604,0.72114 -0.92719,0.5151z" fill="#b58f6d" stroke="none" stroke-width="0.5"/><path d="M232.08171,177.07058c0,-0.41422 0.33578,-0.75 0.75,-0.75c0.41422,0 0.75,0.33578 0.75,0.75c0,0.41422 -0.33578,0.75 -0.75,0.75c-0.41422,0 -0.75,-0.33578 -0.75,-0.75z" fill="#b58f6d" stroke="none" stroke-width="0.5"/><path d="M259.40642,182.25629c0,-0.41422 0.33578,-0.75 0.75,-0.75c0.41422,0 0.75,0.33578 0.75,0.75c0,0.41422 -0.33578,0.75 -0.75,0.75c-0.41422,0 -0.75,-0.33578 -0.75,-0.75z" fill="#b58f6d" stroke="none" stroke-width="0.5"/><path d="M232.69575,196.04587c-0.14568,0.73571 -0.8814,0.59003 -0.8814,0.59003l-0.44169,-0.08746c-0.96742,-0.19175 -1.94038,-0.35745 -2.91674,-0.49676c0,0 -0.74246,-0.10608 -0.63639,-0.84853c0.10607,-0.74246 0.84853,-0.63639 0.84853,-0.63639c1.00283,0.14345 2.00219,0.31365 2.99597,0.51025l0.44169,0.08746c0,0 0.73571,0.14569 0.59003,0.8814z" fill="#b58f6d" stroke="none" stroke-width="0.5"/><path d="M269.03628,188.52217c-0.6,-0.45 -0.15,-1.05 -0.15,-1.05l0.88919,-1.18557c0.62283,-0.8097 1.30122,-1.52447 1.67379,-2.48424c0,0 0.27855,-0.69635 0.9749,-0.4178c0.69636,0.27855 0.4178,0.97491 0.4178,0.97491c-0.44452,1.08635 -1.16111,1.91028 -1.872,2.83443l-0.88368,1.17827c0,0 -0.45,0.6 -1.05,0.15z" fill="#b58f6d" stroke="none" stroke-width="0.5"/><path d="M258.28448,167.28907c-0.49388,-0.56444 0.07056,-1.05831 0.07056,-1.05831c0.37629,-0.32925 0.80565,-0.70494 1.18194,-1.03419c0,0 0.56444,-0.49388 1.05831,0.07056c0.49388,0.56444 -0.07056,1.05831 -0.07056,1.05831c-0.37629,0.32925 -0.75258,0.6585 -1.12887,0.98775l-0.05307,0.04644c0,0 -0.56444,0.49388 -1.05831,-0.07056z" fill="#b58f6d" stroke="none" stroke-width="0.5"/><path d="M229.62375,160.03242c-0.62428,-0.41565 -0.20863,-1.03994 -0.20863,-1.03994l0.33707,-0.50625c0.56193,-0.84361 1.14758,-1.67189 1.7556,-2.48291c0,0 0.45,-0.59999 1.05,-0.14999c0.6,0.45 0.15,1.05 0.15,1.05c-0.59151,0.78835 -1.16098,1.59373 -1.70703,2.41422l-0.33707,0.50625c0,0 -0.41565,0.62428 -1.03994,0.20863z" fill="#b58f6d" stroke="none" stroke-width="0.5"/><path d="M212.57382,195.56824c-0.70225,0.26334 -0.96559,-0.4389 -0.96559,-0.4389l-0.42445,-1.13647c-0.38748,-0.7236 -0.77396,-1.44773 -1.16022,-2.17198c0,0 -0.35294,-0.66177 0.30882,-1.01471c0.66177,-0.35294 1.01471,0.30883 1.01471,0.30883c0.40169,0.75316 0.8031,1.50647 1.20364,2.26025l0.462,1.2274c0,0 0.26334,0.70225 -0.4389,0.96559z" fill="#b58f6d" stroke="none" stroke-width="0.5"/><path d="M253.53967,201.41939c-0.05278,0.74814 -0.80093,0.69536 -0.80093,0.69536l-0.08143,-0.00575c-2.07742,-0.15172 -3.97849,-0.78758 -5.97848,-1.35008c0,0 -0.72199,-0.20306 -0.51893,-0.92505c0.20306,-0.72199 0.92504,-0.51892 0.92504,-0.51892c1.89553,0.53312 3.70948,1.16429 5.67794,1.29778l0.08143,0.00574c0,0 0.74813,0.05279 0.69535,0.80093z" fill="#b58f6d" stroke="none" stroke-width="0.5"/><path d="M212.056,186.13644c-0.72586,0.18875 -0.91461,-0.53712 -0.91461,-0.53712l-0.31602,-1.22127c-0.18031,-0.44942 -0.36061,-0.89885 -0.54092,-1.34828c0,0 -0.27855,-0.69636 0.41781,-0.97491c0.69636,-0.27855 0.97491,0.41782 0.97491,0.41782c0.19108,0.47905 0.38217,0.9581 0.57325,1.43715l0.3427,1.31199c0,0 0.18875,0.72586 -0.53711,0.91461z" fill="#b58f6d" stroke="none" stroke-width="0.5"/></g></g></svg>